<svg xmlns="http://www.w3.org/2000/svg" width="270" height="270" xmlns:v="https://vecta.io/nano"><path d="M0 0h270v270H0V0z" fill="#f3d730"/><path d="M168 146c-.598 5.844-2.804 10.796-5.125 16.125l-1.232 2.835C155.743 178.32 148.4 192.821 135 200c-4.216 1.073-7.436.836-11.293-1.227C107.977 187.348 100.391 168.031 95 150v-3c23.36-12.447 49.277-14.914 73-1z" fill="#e98587"/><path d="M131.766 107.113c3.315 1.316 6.23 3.239 9.234 5.137 13.721 8.452 25.923 12.546 42 9.75l-1 3-2.41.656c-3.008 1.192-3.008 1.192-3.961 5.063l-1.066 4.781-1.266 5.219-.646 2.68c-5.101 20.404-14.887 46.288-33.74 57.648-4.224 2.108-8.27 2.67-12.91 1.953-3.02-1.25-5.446-2.976-8-5l-1.965-1.551c-10.74-9.592-16.274-24.428-21.317-37.579l-1.933-4.894C89.494 145.506 86.657 136.157 87 127l-2.937-.812L81 125l-1-3 2.375.5c16.517 2.278 30.848-4.519 44.375-13.562C130 107 130 107 131.766 107.113zM95 147c2.985 19.739 12.994 38.495 28 51.625 4.166 1.909 7.505 2.363 12 1.375 14.686-7.329 22.338-24.697 28.438-39l1.037-2.427c1.729-4.187 3.009-8.032 3.525-12.573-22.776-13.359-50.706-12.649-73 1z" fill="#6f2429"/><path d="M249 125v2l1.75.625c4.093 2.501 5.808 6.28 7.563 10.625 1.283 6.998.541 13.661-2.949 19.93-3.921 5.235-9.142 8.118-15.363 9.82-8.063.86-14.103.328-21-4v-2l-3-1c-3.84-7.366-6.806-15.058-4.312-23.262.704-1.938 1.5-3.843 2.313-5.738h2l.75-1.812c1.431-2.504 2.819-3.668 5.25-5.187h2v-2c8.99-2.83 16.565-2.217 25 2z" fill="#e13730"/><path d="M45 128c5.056 4.994 6.42 9.49 6.688 16.563-.272 6.467-1.359 10.632-5.687 15.438l-2.375 2.813c-6.589 5.491-12.568 5.848-21.02 5.664-6.217-.822-9.257-3.673-13.156-8.328-3.985-5.276-4.605-9.034-4.637-15.523l-.043-3.961c.214-3.402.749-5.631 2.23-8.664h2l.207-1.801c1.6-4.437 6.771-6.203 10.793-8.199 9.241-2.888 17.958-.317 25 6z" fill="#e0362f"/><path d="M216.402 68.738c5.689 2.574 8.488 6.121 11.348 11.637 2.088 6.054 1.769 9.993-.875 15.75-2.986 5.535-5.986 8.584-11.812 11.188-6.333 1.422-11.104.867-16.91-1.902-4.528-2.967-7.458-7.328-9.152-12.41-.693-7.034-.563-13.324 4-19 6.651-6.566 14.495-7.999 23.402-5.262z" fill="#080704"/><path d="M66.313 69.563L69 72l1.691 1.516c4.045 4.317 4.813 8.117 5.059 13.984-.249 5.822-.967 9.695-5 13.98-6.214 5.395-10.514 6.127-18.723 5.836-5.474-.572-8.025-2.268-11.777-6.191C35.802 94.947 35.183 89.461 36 82c1.622-5.994 5.049-9.322 10-12.871 6.205-3.503 14.066-2.513 20.313.434z" fill="#090604"/><path d="M131.766 107.113c3.315 1.316 6.23 3.239 9.234 5.137 13.721 8.452 25.923 12.546 42 9.75l-1 3-2.41.656c-3.008 1.192-3.008 1.192-3.961 5.063l-1.066 4.781-1.266 5.219-.646 2.68c-5.101 20.404-14.887 46.288-33.74 57.648-4.224 2.108-8.27 2.67-12.91 1.953-3.02-1.25-5.446-2.976-8-5l-1.965-1.551c-10.74-9.592-16.274-24.428-21.317-37.579l-1.933-4.894C89.494 145.506 86.657 136.157 87 127l-2.937-.812L81 125l-1-3 2.375.5c16.517 2.278 30.848-4.519 44.375-13.562C130 107 130 107 131.766 107.113zm-6.203 6.512C115.208 121.751 102.764 124.951 90 127c.409 6.762 1.57 12.672 4 19l4-2-1.531 1.227c-1.678 1.649-1.678 1.649-1.5 3.797 4.297 19.02 13.271 36.686 28.031 49.602 4.166 1.909 7.505 2.363 12 1.375 14.686-7.329 22.338-24.697 28.438-39l1.037-2.427c1.729-4.187 3.009-8.032 3.525-12.573l-3.312-2-1.863-1.125c-1.938-1.091-1.938-1.091-4.824-.875v-2l1.645.875 2.168 1.125 2.145 1.125c2.132 1.072 2.132 1.072 5.043.875 3.385-5.445 3.674-10.677 4-17l-2.457-.262c-9.776-1.241-17.149-4.218-25.645-9.066l-2.171-1.238-4.247-2.487c-5.049-2.947-8.27-4.359-12.919-.322z" fill="#1f0d05"/><path d="M95 150c1.874 2.812 2.823 5.307 3.851 8.496 4.9 15.095 12.002 28.525 24.086 39.066 4.191 1.967 7.522 2.441 12.063 1.438 3.103-1.575 5.491-3.605 8-6l1.773-1.687C155.144 180.426 160.502 165.715 166 152c1.959 3.279 2.056 3.762 1.125 7.75-4.164 11.146-9.833 21.853-17.125 31.25l-1.418 1.984c-4.248 5.569-9.871 8.958-16.723 10.496-5.752.419-9.553-2.068-13.859-5.48l-1.965-1.551C104.561 186.202 94.888 166.149 93 151l2-1z" fill="#281307"/><path d="M65 72c2.753 1.796 4.526 3.053 6 6 .584 7.241.584 7.241-1.875 10.438C65.294 91.255 62.774 91.477 58 91c-3.437-2-3.437-2-6-5-.746-2.826-.687-5.165 0-8 3.63-5.687 6.336-6.565 13-6z" fill="#f5f3f4"/><path d="M219 73c3.063 1.5 3.063 1.5 5 4 .574 4.522.546 6.833-1.375 10.938-1.818 2.307-2.738 2.925-5.613 3.371-4.624.256-6.392.21-10.074-2.871-2.252-3.995-2.757-5.931-1.937-10.437 3.654-5.54 7.815-6.174 14-5z" fill="#f3f3f1"/><path d="M238 121l2 2-3.437.875L233 125l-1 2c-2.504.414-2.504.414-5.562.625l-3.066.227L221 128l-.586 1.934-.789 2.504-.773 2.496C218 137 218 137 216 138v-3l-1 3h-2c.366 7.455 1.209 14.049 4 21h-2c-3.437-8.348-5.718-14.708-2.5-23.5l1.5-3.5h2l.75-1.812c1.431-2.504 2.819-3.668 5.25-5.187h2v-2c4.769-1.316 9.008-2.475 14-2z" fill="#d64a23"/><path d="M216.43 68.719c5.652 2.645 8.455 6.13 11.32 11.656 1.306 3.788 1.493 6.65 1.25 10.625h-1v-6h-2l-1 2h-2l.141-2.082.109-2.73.141-2.707c-.172-2.576-.172-2.576-2.047-4.293-2.894-1.466-4.866-1.49-8.094-1.375l-2.984.082L208 74l-1 2-2-1v-2l-1.937-.875C201 71 201 71 200 69c4.686-2.343 11.514-1.735 16.43-.281z" fill="#120f07"/><path d="M155 137l2 3-4.125-.437-2.32-.246-5.203-.832c-13.538-1.957-29.261-2.018-41.531 4.711C102 144 102 144 99 143c16.183-8.981 37.929-11.651 56-6z" fill="#350b0b"/><path d="M66.375 69.688C69.46 72.405 71.772 74.518 74 78c-.687 3.375-.687 3.375-2 6h-1l-.75-3.812c-.69-2.689-1.123-4.037-2.937-6.187-3.335-1.442-5.716-1.442-9.312-1-2.908 1.857-2.908 1.857-5 4l-1-6h2v-2l-8 1c5.146-5.146 14.443-3.279 20.375-.312z" fill="#110e0c"/><path d="M74 95l2 4-2.312 3.375-1.301 1.898c-3.444 4.288-8.2 5.072-13.387 5.727-3.059-.079-5.987-.494-9-1l-2.75-.187c-3.546-1.281-5.023-3.822-7.25-6.812l1-2 .625 1.875c1.962 3.033 3.932 3.195 7.375 4.125 7.167.845 13.452.908 19.41-3.488 2.403-2.285 3.975-4.618 5.59-7.512z" fill="#ddc84a"/><path d="M124 85h13c0 5 0 5-1.625 7.313C133 94 133 94 129.938 94.563 127 94 127 94 125.125 91.75 124 89 124 89 124 85z" fill="#130e02"/><path d="M131 108c3.029.631 5.374 1.633 8.047 3.18l2.313 1.316 4.734 2.734c4.865 2.767 9.613 4.945 14.906 6.77l-2 2c-6.735-.242-12.467-3.567-18.062-7l-2.334-1.367c-4.138-2.482-4.138-2.482-5.604-3.633v-2h-2v-2z" fill="#1b0b02"/><path d="M41 125c-3.75 1.125-3.75 1.125-6 0v-2c-7.946.242-14.222.652-21 5l-2 3h-2l-1 5H7l-1 8H5c-.178-4.548.002-7.879 2-12h2l.207-1.801c1.6-4.437 6.771-6.203 10.793-8.199 6.784-2.12 15.286-1.381 21 3z" fill="#cf5319"/><path d="M218 70c4.733 2.299 7.471 5.477 10 10 1.178 3.679 1.074 7.152 1 11h-1v-6h-2l-1 2h-2l.141-2.082.109-2.73.141-2.707c-.16-2.599-.16-2.599-2.172-4.262C218.217 73.57 215.38 73.325 212 73v-1h6v-2z" fill="#3c3217"/><path d="M113 189l2.938 2.688c5.143 4.422 11.023 7.313 17.063 10.313-6.284.503-9.989.232-15-4-2.068-1.949-4.036-3.943-6-6l1-3z" fill="#1a0c03"/><path d="M166 152c1.404 2.261 2.094 3.44 1.645 6.113l-.832 2.199-.875 2.359c-1.262 3.135-2.559 6.242-3.937 9.328-1.125-1.625-1.125-1.625-2-4 .625-2.625.625-2.625 2-6l1.031-2.609L166 152z" fill="#33240e"/><path d="M139 82h1v7h-3v-4h-13l2 8-3-1v-8c1-1 1-1 3.906-1.133l3.594.008 3.594-.008C137 83 137 83 138 84l1-2z" fill="#dec64c"/><path d="M47 130l3 1 1 5h2l-.312 9.188-.068 2.619c-.205 4.858-.538 8.204-3.619 12.193l-3-1 2-2.562c3.345-5.798 2.794-12.986 2-19.437-1.432-2.776-1.432-2.776-3-5v-2z" fill="#f7b23e"/><path d="M95 150c1.904 2.856 2.695 4.931 3.625 8.188l.789 2.73L100 163h-2l-1 2-2-5.312-1.125-2.988C93 154 93 154 93 151l2-1z" fill="#331b0f"/><path d="M101 122v1c-6.42 1.712-14.016 2.191-20-1v-1c6.787-1.566 13.283-.517 20 1z" fill="#dac446"/><path d="M191 67l2.875 1c2.896 1.102 2.896 1.102 5.125 1v-2l3 1-2.187 1.688c-2.79 2.294-5.295 4.727-7.812 7.313l-2 2v-7l3-1-2-1v-3z" fill="#e2d045"/><path d="M257 146h1c-.03 6.532-1.469 10.451-5.527 15.566C251 163 251 163 249 163l4-8h2v-5h2v-4z" fill="#d6491f"/><path d="M115 118l-3 1v3c-2.917 1.984-4.124 1.988-7.75 1.625L101 123c2.25-2.25 4.063-3.005 7-4.187l2.688-1.105C113 117 113 117 115 118z" fill="#2c1a06"/><path d="M37 75h2l-1 2.813C36.021 84.767 36.119 92.337 39 99h-2c-2.033-3.05-2.255-3.69-2.266-7.125l-.008-2.391L34.75 87l-.023-2.484.008-2.391.007-2.18C35 78 35 78 37 75z" fill="#c8b940"/><path d="M257 136h2c2.997 5.641 1.571 11.059.063 16.938C258 156 258 156 256 157l1.063-3.75c1.332-5.841.675-11.359-.062-17.25z" fill="#fec542"/><path d="M135 112v3h-9v2l-5 1c7.389-7.653 7.389-7.653 14-6z" fill="#5e2528"/><path d="M44 162l2 1c-3.281 3.656-5.134 5.385-10 6-2.103.066-4.208.086-6.312.063l-3.238-.027L24 169v-1l2.852-.297c9.343-.988 9.343-.988 17.148-5.703z" fill="#f5b03a"/><path d="M255 157l1 2c-.851 2.432-1.848 4.697-3 7-2.066.414-2.066.414-4.562.625l-2.504.227L244 167l2.188-1.687c2.788-2.293 5.297-4.727 7.813-7.312l1-1z" fill="#f8bf3b"/><path d="M90 143l2.313 1.063c2.735 1.261 2.735 1.261 5.688-.062l-1 3h-2v4h-3c-1.257-2.906-2-4.796-2-8z" fill="#281208"/><path d="M112 140c0 3 0 3-1.5 4.75-3.756 1.878-6.414.999-10.5.25 3.287-3.287 7.359-5 12-5z" fill="#d17d7b"/><path d="M30 121c4.516-.077 8.591-.102 13 1v3h2l2 5-2.195-1.496-2.93-1.941-2.883-1.934c-3.091-1.682-5.516-2.263-8.992-2.629v-1z" fill="#fac43f"/><path d="M214 68c8.571.714 8.571.714 12 4l-1 2h2v5l-1.625-2.25C222.831 73.804 220.3 72.036 217 70l-3-2z" fill="#d6c44c"/><path d="M222 165l1.949.992c4.032 1.332 7.651 1.225 11.863 1.133l2.389-.027L244 167c-2 2-2 2-3.879 2.227l-2.253-.032-2.441-.02-2.551-.051-2.574-.027L224 169l-2-4z" fill="#f3a93b"/><path d="M145 138l10 2-2 1v2l-9-2 1-3z" fill="#e08182"/><path d="M66 70c7.187 5.468 7.187 5.468 8 10-1.375 2.313-1.375 2.313-3 4l-.75-3.75c-.921-3.764-2.163-5.781-5.25-8.25l1-2z" fill="#362818"/><path d="M218 70c4.034 2.071 5.929 3.966 8 8l-2 2-.937-2.375c-3-3.818-6.416-3.972-11.062-4.625v-1h6v-2z" fill="#3b3727"/><path d="M136 90l4 1c-.687 1.938-.687 1.938-2 4-2.954 1.088-4.378 1.252-7.312.063L129 94l6-1 1-3z" fill="#d8ca35"/><path d="M72 79l3 1c-.61 5.492-.61 5.492-2.437 7.875C71 89 71 89 69 89l3-10zm-5 10l2 1z" fill="#16160c"/><path d="M3 140h1l.25 7.313.102 2.092c.039 2.021.039 2.021-.352 5.596-2.016 1.98-2.016 1.98-4 3v-6h2l1-12z" fill="#f8d23e"/><path d="M150.625 136.188l2.352.23C155 137 155 137 157 140c-5.03-.525-10.019-1.106-15-2 3.09-1.827 5.068-2.223 8.625-1.812z" fill="#471719"/><path d="M205 104l2 1c4.653.305 4.653.305 9-1l2 2c-4.497 1.755-8.174 2.364-13 2l-3-2h3v-2z" fill="#37280e"/><path d="M157 169h2c-1.222 4.043-2.628 7.493-5 11h-1c-.201-3.625.142-5.865 2-9h2v-2z" fill="#d58185"/><path d="M166 152c2 4 2 4 1.125 7.25L166 162h-3l3-10z" fill="#2f160b"/><path d="M166 123v2l4 2-4.812-.375-2.707-.211C160 126 160 126 157 124c2.957-1.478 5.742-1.06 9-1z" fill="#2a1008"/><path d="M112 192l3.438 2.875 1.934 1.617C119 198 119 198 120 200l-7-1-1-7z" fill="#d6c449"/><path d="M58 67l2 2-4.75.563-2.672.316c-2.462.116-4.244-.143-6.578-.879 4.152-1.582 7.547-2.405 12-2z" fill="#362d06"/><path d="M226 96l2 3c-1.25 2.5-1.25 2.5-3 5h-4l5-8z" fill="#d3c740"/><path d="M142 198l2 1-1 2h-2v2l-6 1-1-2 3.875-2.062 2.18-1.16L142 198z" fill="#d7c63f"/><path d="M120 200l2.5.938c3.891 1.181 7.462 1.645 11.5 2.063v1h-13l-1-4z" fill="#eacf57"/><path d="M105 183h2l3 6-2 1v-2l-4 1 1-6z" fill="#dfc640"/><path d="M213 129l4 1-1 2h-2l-.375 2.313C213 137 213 137 211 140c1-7.429 1-7.429 2-11z" fill="#fcc741"/><path d="M47 130l3 1 1 5h2l-1 6h-1l-4-12z" fill="#fbbf44"/><path d="M224 165h5v2h11v1l-6.312.188-3.551.105C227 168 227 168 225.082 166.488L224 165z" fill="#cf471b"/><path d="M176 127h1v11h-2l-1 2c.52-4.379 1.057-8.688 2-13z" fill="#d7c449"/><path d="M122 199c4.116.475 7.364 1.021 11 3l-4.375.063-2.461.035C124 202 124 202 122 201v-2z" fill="#170901"/><path d="M183 122l-1 3-6 2v-4c3-1 3-1 7-1z" fill="#362e05"/><path d="M65 72l-1.687.813c-2.402 1.194-2.402 1.194-4.937 2.813C56 77 56 77 54 77c2.545-5.635 5.028-5.111 11-5z" fill="#cac7cc"/><path d="M211 69h2v2l5-1v2l-9 2c1-4 1-4 2-5z" fill="#090808"/><path d="M119 195l6 3-3 2c-3.875-1.75-3.875-1.75-5-4l2-1z" fill="#29180a"/><path d="M152 187l2 4-5 4-1-3 4-5z" fill="#d8c83e"/><path d="M89 144c2.503 2.938 3.469 5.179 4 9l-3-1v-2l-2-1 1-5z" fill="#deca4e"/><path d="M145 191l2 4-4 3v-2l-2-1 4-4z" fill="#412817"/><path d="M80 122l6 1 1 4c-2.937-.812-2.937-.812-6-2l-1-3z" fill="#2e2204"/><path d="M110 184l4 5-3 2-2-5 1-2z" fill="#351b0d"/><path d="M221 126l1 2-1 2h-2v2h-3c1.37-3.161 1.989-3.993 5-6z" fill="#d5451d"/><path d="M240 121c6.75.875 6.75.875 9 2v2c-3.147-.699-6.026-1.761-9-3v-1z" fill="#fcbf40"/><path d="M37 75h2l-3 9h-1c-.25-5.625-.25-5.625 2-9z" fill="#d3c252"/><path d="M228 74l2 1-1 9c-2.178-4.355-2.03-5.466-1-10z" fill="#ecd142"/></svg>